<?xml version="1.0" encoding="UTF-8"?>
<svg id="Layer_1" xmlns="http://www.w3.org/2000/svg" version="1.1" viewBox="0 0 400 400">
  <!-- Generator: Adobe Illustrator 30.3.0, SVG Export Plug-In . SVG Version: 2.1.3 Build 182)  -->
  <defs>
    <style>
      .st0 {
        fill: #4fce8e;
        stroke: #fff;
        stroke-miterlimit: 10;
      }

      .st1 {
        fill: #e34894;
      }

      .st2 {
        fill: #feeff1;
      }
    </style>
  </defs>
  <polygon class="st0" points="133.9 193.9 114.2 200 100.9 105.3 61.6 142.6 71.6 97.7 102.3 92.3 70.4 80.4 38.7 101.2 69.3 53.1 99.7 83.9 110.1 40.4 159.3 67 122.9 69.1 111.7 90.2 131.2 78.3 164.6 108.9 116.4 103 133.9 193.9"/>
  <polygon class="st0" points="276.9 369.6 293.7 375 306.5 292.1 339.5 324.8 331.8 285.4 305.5 280.7 333 270.3 359.8 288.5 334.4 246.4 307.9 273.3 299.7 235.3 257.2 258.5 288.3 260.4 297.6 278.9 281.1 268.4 252 295.2 293.3 290 276.9 369.6"/>
  <polygon class="st1" points="66.6 321.6 47.9 279.4 107.5 271.7 120.7 305.2 155.4 312.1 101.7 338.6 66.6 321.6"/>
  <polygon class="st2" points="71.8 317.5 56.7 284.9 103.9 277.4 114.8 305.1 71.8 317.5"/>
  <path class="st2" d="M340.7,155.2c-.8-31.9-34.8-52.3-34.8-52.3-6.2-4.9,9.5-25.3,9.5-25.3-14.7-2.5-30.2,17.2-30.2,17.2-31.9-11.4-50.7,18.8-50.7,18.8-8.4,9.7,0,17.5,0,17.5-38.5,38.8,17.6,3.8,17.6,3.8,5-2.5,12.6-2.4,21.2-.9-.2,1.5-.3,3.1-.3,4.7,0,10.1,3.9,18.3,8.8,18.3s8.8-8.2,8.8-18.3,0-.2,0-.4c21.3,6.6,42.1,17,42.1,17-7.4,7.5.8,29.4.8,29.4-.8-29.4,26.5-6.5,26.5-6.5,1.9-9-19.1-22.9-19.1-22.9Z"/>
</svg>